<svg id="Capa_1" data-name="Capa 1" xmlns="http://www.w3.org/2000/svg" viewBox="0 0 32 32"><defs><style>.cls-1{fill:#1d1d1b;}.cls-2{fill:#f6f6f6;}</style></defs><circle class="cls-1" cx="16" cy="16" r="16"/><path class="cls-2" d="M4.05,15.88c0-2.7,0-5.4,0-8.1,0-.87.24-1.16,1.07-1.23a20.33,20.33,0,0,1,6.74.15,5,5,0,0,1,4,4.46c.31,2.76-.7,4.89-2.87,6a8.83,8.83,0,0,1-4.83.95C7.13,18,7,18.36,7,19.21c.06,1.71,0,3.42,0,5.12,0,.72-.18,1-.93,1-2.07,0-2.07,0-2.07-2Z"/><path class="cls-2" d="M24.15,6.2a7.54,7.54,0,0,1,2.36.26c1.92.45,2,.61,1.32,2.51-.22.59-.37.83-1,.45a5.8,5.8,0,0,0-3.46-.59A2.39,2.39,0,0,0,21,10.64a2.22,2.22,0,0,0,1.27,2.67c1.08.57,2.24,1,3.33,1.54,2.2,1.08,3.62,2.71,3.45,5.31a5.2,5.2,0,0,1-4.51,5.07,10.77,10.77,0,0,1-6.09-.53c-.78-.31-1.24-.67-.76-1.57a3,3,0,0,0,.27-.9c.1-.67.34-.69.92-.38a6.87,6.87,0,0,0,4.92.84,2.61,2.61,0,0,0,2.19-2.22,2.58,2.58,0,0,0-1.23-2.64,10,10,0,0,0-2.12-1,12.36,12.36,0,0,1-2.34-1.14,4.78,4.78,0,0,1-2.36-5.17,5,5,0,0,1,3.79-4A6.24,6.24,0,0,1,24.15,6.2Z"/><path class="cls-1" d="M7,12.09A18.91,18.91,0,0,0,7,10c-.1-.89.33-1.13,1.09-1.09A13.23,13.23,0,0,1,10,9c1.95.36,2.84,1.31,2.87,3a3.25,3.25,0,0,1-2.8,3.44l-.11,0C7.43,16,7,15.68,7,13.16Z"/></svg>